<svg id="Layer_1" data-name="Layer 1" xmlns="http://www.w3.org/2000/svg" viewBox="0 0 26 26"><defs><style>.cls-1{fill:#231f20;}</style></defs><title>linkedin</title><path class="cls-1" d="M24.1,0H1.9A1.84,1.84,0,0,0,0,1.9V24.1A2,2,0,0,0,1.9,26H24.1A1.84,1.84,0,0,0,26,24.1V1.9A1.9,1.9,0,0,0,24.1,0ZM8,22H4V10H8V22ZM6,8.4A2.43,2.43,0,0,1,3.6,6,2.43,2.43,0,0,1,6,3.6,2.43,2.43,0,0,1,8.4,6,2.43,2.43,0,0,1,6,8.4ZM22,22H18V16c0-1.6-.4-3.2-2-3.2s-2,1.6-2,3.2v6H10V10h4v1.4h0.2a3.71,3.71,0,0,1,3.3-1.8C21.2,9.6,22,12,22,15v7Z"/></svg>